Coordinates
version=1
nRows=19
nColumns=33
inDegrees=yes

Units are S.I. units (second, meters, Newtons, ...)
Angles are in degrees.

endheader
time	ground_thorax_rot_x	ground_thorax_rot_y	ground_thorax_rot_z	ground_thorax_tx	ground_thorax_ty	ground_thorax_tz	clav_prot_r	clav_elev_r	scapula_abduction_r	scapula_elevation_r	scapula_upward_rot_r	scapula_winging_r	shoulder_elv_r	plane_of_elev_r	axial_rot_r	elbow_flexion_r	pro_sup_r	wrist_flex_r	wrist_dev_r	clav_prot_l	clav_elev_l	scapula_abduction_l	scapula_elevation_l	scapula_upward_rot_l	scapula_winging_l	shoulder_elv_l	plane_of_elev_l	axial_rot_l	elbow_flexion_l	pro_sup_l	wrist_flex_l	wrist_dev_l
      1.21000000	    -38.50185116	     -0.05363786	      0.71607543	     -0.84373096	    810.50097011	     -2.63523788	     -7.23387340	    -45.00000000	     45.00000000	    -45.00000000	     31.72702175	  -3708.07289153	  -1740.46279108	     20.01660973	   -179.99999979	   1446.51893814	   -121.26479754	     14.11778028	     11.95335804	     16.24723346	     42.08534949	    -45.00000000	    -41.85121985	    -25.48151193	   2596.24103159	   -293.31584947	     25.32586906	    -22.03386734	   1807.62264559	     17.22105801	     13.73174736	    -18.98445909
      1.22000000	    -38.08285733	     -1.03343691	      1.50418885	      2.02031738	    807.60222324	     -2.30371788	     -6.33262211	    -45.00000000	     45.00000000	    -45.00000000	     29.23491885	  -3707.31992455	  -1740.60463478	     20.03761441	   -179.99999979	   1446.42842383	   -122.67996204	     13.84630476	     11.90104397	     16.30787921	     41.17942659	    -45.00000000	    -41.02128724	    -25.97036480	   2596.53525128	   -293.78096085	     25.46103749	    -23.10275825	   1807.07105518	     16.05065467	     13.73279024	    -18.66972230
      1.23000000	    -37.67205791	     -1.44461350	      1.67734718	      4.64710396	    805.00553103	     -1.94737458	     -5.98458173	    -45.00000000	     45.00000000	    -45.00000000	     27.72658391	  -3706.69990717	  -1740.77596578	     20.20144682	   -179.99999979	   1446.54794338	   -123.82344126	     13.52794555	     11.71249324	     15.74188338	     40.07768475	    -45.00000000	    -39.90534011	    -25.97359618	   2596.52815128	   -293.38875331	     25.21497386	    -23.86452559	   1806.93526227	     15.57301474	     14.00413958	    -18.47756483
      1.24000000	    -37.61583459	     -1.52732175	      1.48030466	      7.02249873	    802.73746843	     -1.55987375	     -6.08953505	    -45.00000000	     45.00000000	    -45.00000000	     27.90137977	  -3706.45640058	  -1740.85664312	     19.78496940	   -179.99999979	   1446.74142070	   -125.61578582	     13.22813599	     11.52899202	     16.05024938	     40.52144196	    -45.00000000	    -39.71020910	    -25.05801315	   2596.47142903	   -294.11117140	     25.12190136	    -24.14539397	   1806.39370405	     15.19275760	     13.94016944	    -18.28218454
      1.25000000	    -37.40890598	     -1.80923315	      1.51347917	      9.12807930	    800.81746440	     -1.14393961	     -5.97125379	    -45.00000000	     45.00000000	    -45.00000000	     27.17537514	  -3706.01262327	  -1740.89026369	     19.66570957	   -179.99999979	   1446.89730374	   -127.20454286	     12.92483546	     11.29666470	     15.77618819	     40.25155119	    -45.00000000	    -39.08211423	    -24.65383654	   2596.38538586	   -294.13132015	     24.88505553	    -24.54023882	   1806.10660869	     15.17641485	     13.98842965	    -18.15390090
      1.26000000	    -37.13160036	     -2.17501447	      1.52252448	     10.95811597	    799.23869846	     -0.70734018	     -5.67472862	    -45.00000000	     45.00000000	    -45.00000000	     25.88826534	  -3705.53483043	  -1741.02789601	     19.84545188	   -179.99999979	   1446.88732391	   -128.20704914	     12.85318704	     11.17473161	     15.42217404	     39.10102699	    -45.00000000	    -38.36101225	    -24.75064157	   2596.38158743	   -293.84316025	     24.78932642	    -25.05359041	   1806.03950379	     15.37049544	     14.09128462	    -18.05068442
      1.27000000	    -37.02885545	     -2.46292328	      1.47454539	     12.50499443	    797.98372233	     -0.26529021	     -5.52768400	    -45.00000000	     45.00000000	    -45.00000000	     25.27581288	  -3705.12772265	  -1741.08663453	     19.67884787	   -179.99999979	   1446.95730258	   -129.01684950	     12.65856526	     10.97173459	     15.42704392	     38.85985324	    -45.00000000	    -37.93114342	    -24.40017803	   2596.27941403	   -293.83805494	     24.58651516	    -25.27165090	   1805.68180092	     15.63113122	     14.08638035	    -17.93838309
      1.28000000	    -36.94407031	     -2.57374589	      1.20373296	     13.76529051	    797.02044105	      0.16302194	     -5.54706302	    -45.00000000	     45.00000000	    -45.00000000	     25.14195651	  -3704.90620988	  -1741.10377271	     19.60847154	   -179.99999979	   1447.03599057	   -129.69972850	     12.59012508	     10.90003745	     15.34414034	     38.91028171	    -45.00000000	    -37.71968561	    -23.96856090	   2596.23151659	   -294.01270450	     24.54915501	    -25.40910404	   1805.48882189	     15.92697017	     13.95306104	    -17.89682636
      1.29000000	    -36.89633272	     -2.82036471	      1.04279671	     14.73608467	    796.30747764	      0.55623112	     -5.52064974	    -45.00000000	     45.00000000	    -45.00000000	     24.79927092	  -3704.65275766	  -1741.16243315	     19.51023249	   -179.99999979	   1447.07733359	   -130.08664169	     12.53198543	     10.80151963	     15.26720355	     38.73306121	    -45.00000000	    -37.46122489	    -23.66315348	   2596.24133401	   -294.01926465	     24.43502283	    -25.44771295	   1805.34735099	     16.23855699	     13.80783646	    -17.86523228
      1.30000000	    -36.74479749	     -3.12353823	      0.94076751	     15.41496130	    795.79791867	      0.89325189	     -5.48984912	    -45.00000000	     45.00000000	    -45.00000000	     24.53953157	  -3704.44458445	  -1741.05039747	     19.49919291	   -179.99999979	   1447.11036878	   -130.19049617	     12.48948849	     10.71605033	     15.19816316	     38.84580097	    -45.00000000	    -37.11472435	    -23.43203396	   2596.30636644	   -294.02255986	     24.29327434	    -25.38569549	   1805.23935271	     16.51258168	     13.51454936	    -17.87338229
      1.31000000	    -36.82713464	     -3.09038390	      0.48784910	     15.80342238	    795.44156311	      1.15767452	     -5.41357853	    -45.00000000	     45.00000000	    -45.00000000	     24.36673431	  -3704.38530792	  -1741.29159364	     19.54344568	   -179.99999979	   1447.02494723	   -130.05628864	     12.63136207	     10.79219028	     15.12394679	     38.80528459	    -45.00000000	    -37.30356029	    -23.27220044	   2596.19596118	   -294.04898890	     24.50409819	    -25.46630801	   1805.04406347	     16.86455430	     13.52535056	    -17.87132584
      1.32000000	    -36.77211537	     -3.40662436	      0.41585161	     15.90091653	    795.19422073	      1.33569320	     -5.49594827	    -45.00000000	     45.00000000	    -45.00000000	     24.35978122	  -3704.32643814	  -1741.09036234	     19.40824853	   -179.99999979	   1447.03875021	   -129.63747996	     12.58903583	     10.68605846	     15.06951565	     39.04309599	    -45.00000000	    -37.09992159	    -22.97756584	   2596.30360381	   -294.09587113	     24.29704681	    -25.18216645	   1804.96372094	     17.13794864	     13.16714280	    -17.92904733
      1.33000000	    -36.97082867	     -3.21465568	     -0.17830610	     15.71262657	    795.01577042	      1.42046842	     -5.41684252	    -45.00000000	     45.00000000	    -45.00000000	     24.27516710	  -3704.41442143	  -1741.44796956	     19.54484570	   -179.99999979	   1446.94060660	   -128.99183138	     12.86385986	     10.88005999	     15.04705537	     38.94608880	    -45.00000000	    -37.43941433	    -23.00877700	   2596.31475815	   -293.95042298	     24.70935817	    -25.20658652	   1804.96122829	     17.46920376	     13.22302196	    -17.99914796
      1.34000000	    -36.99639941	     -3.56880013	     -0.18036073	     15.23799559	    794.87322448	      1.40708907	     -5.48320118	    -45.00000000	     45.00000000	    -45.00000000	     24.26882907	  -3704.34115030	  -1741.30984670	     19.35297292	   -179.99999979	   1446.91988530	   -127.86293511	     12.79529490	     10.76140821	     15.04615091	     39.19220710	    -45.00000000	    -37.43907479	    -22.89513346	   2596.35848087	   -293.94540063	     24.48972277	    -24.84358816	   1804.78120904	     17.79311106	     13.00035691	    -18.03581995
      1.35000000	    -37.01673373	     -3.73363739	     -0.30775268	     14.49528864	    794.74834324	      1.29328241	     -5.49166373	    -45.00000000	     45.00000000	    -45.00000000	     24.30270345	  -3704.57010557	  -1741.18523451	     19.42098778	   -179.99999979	   1446.90560766	   -126.69102028	     13.03955245	     10.88275721	     15.02908443	     39.39901859	    -45.00000000	    -37.42098671	    -22.80856658	   2596.59285320	   -294.01597771	     24.59504967	    -24.46576691	   1804.67967951	     17.97463479	     12.62318594	    -18.13113558
      1.36000000	    -37.15730573	     -3.78727517	     -0.61878307	     13.49253682	    794.62250904	      1.08093630	     -5.51280471	    -45.00000000	     45.00000000	    -45.00000000	     24.21067783	  -3704.48568376	  -1741.24088369	     19.25543492	   -179.99999979	   1446.70045626	   -125.26518755	     12.96212136	     10.73714388	     15.04382030	     39.46570883	    -45.00000000	    -37.73139968	    -23.00006925	   2596.51213025	   -293.86362233	     24.56809606	    -24.28038628	   1804.70199768	     18.20168771	     12.79854667	    -18.17097403
      1.37000000	    -37.09721264	     -4.06790388	     -0.53270997	     12.24745995	    794.48626752	      0.77611628	     -5.43863985	    -45.00000000	     45.00000000	    -45.00000000	     24.20017577	  -3704.81691056	  -1740.95993591	     19.43517207	   -179.99999979	   1446.74497455	   -123.62409758	     13.32875144	     10.96618885	     15.08808146	     39.52766903	    -45.00000000	    -37.59279752	    -22.92617265	   2596.86673688	   -294.05215959	     24.64299046	    -23.85251273	   1804.41066149	     18.28972657	     12.31606291	    -18.22218504
      1.38000000	    -37.19585325	     -4.03535239	     -0.88737839	     10.77078986	    794.33381502	      0.38711821	     -5.44379877	    -45.00000000	     45.00000000	    -45.00000000	     23.95611210	  -3704.56471449	  -1740.94718172	     19.24600340	   -179.99999979	   1446.43160458	   -121.81447581	     13.11373348	     10.68081963	     15.00686407	     39.51326068	    -45.00000000	    -37.80678317	    -23.21059860	   2596.84762624	   -293.66509151	     24.62594423	    -23.84319787	   1804.60040464	     18.43382863	     12.68691990	    -18.26891276
      1.39000000	    -37.40328536	     -4.29323945	     -0.79799931	      9.06272622	    794.16587048	     -0.05967800	     -5.28101795	    -45.00000000	     45.00000000	    -45.00000000	     23.70233311	  -3704.82905858	  -1740.94100072	     19.14863272	   -179.99999979	   1446.29527601	   -119.26737192	     13.36047554	     10.80400233	     15.21716702	     39.76454056	    -45.00000000	    -38.20230583	    -23.61709321	   2596.91718031	   -293.69661619	     24.61503162	    -23.57230411	   1804.47010042	     18.44917884	     12.39999540	    -18.30416177
